<svg xmlns="http://www.w3.org/2000/svg" viewBox="0 0 1200 630"><rect width="1200" height="630" fill="#071421"/><g stroke="#1d3447" stroke-width="1" opacity=".75"><path d="M0 90h1200M0 180h1200M0 270h1200M0 360h1200M0 450h1200M0 540h1200M100 0v630M200 0v630M300 0v630M400 0v630M500 0v630M600 0v630M700 0v630M800 0v630M900 0v630M1000 0v630M1100 0v630"/></g><text x="72" y="82" fill="#e8a33d" font-family="monospace" font-size="18">YK / ENGINEERING PORTFOLIO</text><text x="72" y="190" fill="#eaeff3" font-family="Arial,sans-serif" font-size="68" font-weight="700">Yuvraj Kesarwani</text><text x="72" y="245" fill="#b9c7d3" font-family="Arial,sans-serif" font-size="28">Web · IoT · CAD · Product Design</text><rect x="72" y="318" width="420" height="130" fill="#0d2438" stroke="#2e4e68"/><text x="100" y="358" fill="#e8a33d" font-family="monospace" font-size="16">CURRENT STATUS</text><text x="100" y="397" fill="#eaeff3" font-family="monospace" font-size="18">BUILDING PRACTICAL SYSTEMS</text><text x="100" y="427" fill="#6fcf97" font-family="monospace" font-size="14">● AVAILABLE FOR COLLABORATION</text><circle cx="935" cy="365" r="155" fill="none" stroke="#2e4e68"/><circle cx="935" cy="365" r="100" fill="none" stroke="#2e4e68"/><circle cx="935" cy="365" r="45" fill="none" stroke="#2e4e68"/><path d="M780 365h310M935 210v310" stroke="#2e4e68"/><path d="M935 365L1050 280" stroke="#e8a33d" stroke-width="5"/><circle cx="1050" cy="280" r="7" fill="#6fcf97"/><text x="72" y="570" fill="#7b93a6" font-family="monospace" font-size="14">www.mydear.fun</text><text x="1060" y="570" fill="#7b93a6" font-family="monospace" font-size="14" text-anchor="end">REV. 2026</text></svg>